<svg width="96" height="96" viewBox="0 0 96 96" fill="none" xmlns="http://www.w3.org/2000/svg">
<rect x="1" y="1" width="94" height="94" rx="4" fill="#CCCCCC" stroke="#B8B8B8" stroke-width="2"/>
<path d="M26.04 81.36C26.5133 81.44 26.8967 81.6067 27.19 81.86C27.4833 82.1133 27.63 82.5067 27.63 83.04C27.63 84.3467 26.72 85 24.9 85H23V78.11H24.63C25.5033 78.11 26.17 78.2533 26.63 78.54C27.0967 78.8267 27.33 79.2633 27.33 79.85C27.33 80.25 27.2033 80.5833 26.95 80.85C26.7033 81.1167 26.4 81.2867 26.04 81.36ZM23.95 78.86V81.03H24.99C25.39 81.03 25.7167 80.9333 25.97 80.74C26.23 80.5467 26.36 80.2733 26.36 79.92C26.36 79.52 26.2233 79.2433 25.95 79.09C25.6833 78.9367 25.2767 78.86 24.73 78.86H23.95ZM24.9 84.24C25.46 84.24 25.8867 84.1567 26.18 83.99C26.48 83.8233 26.63 83.5067 26.63 83.04C26.63 82.5867 26.4867 82.26 26.2 82.06C25.9133 81.86 25.54 81.76 25.08 81.76H23.95V84.24H24.9ZM31.544 77.99C32.124 77.99 32.6307 78.13 33.064 78.41C33.504 78.6833 33.844 79.0867 34.084 79.62C34.3307 80.1533 34.454 80.8 34.454 81.56C34.454 82.3067 34.3307 82.9467 34.084 83.48C33.844 84.0133 33.504 84.42 33.064 84.7C32.6307 84.98 32.124 85.12 31.544 85.12C30.964 85.12 30.454 84.9833 30.014 84.71C29.5807 84.4367 29.2407 84.0333 28.994 83.5C28.754 82.9667 28.634 82.3233 28.634 81.57C28.634 80.83 28.754 80.19 28.994 79.65C29.2407 79.11 29.584 78.7 30.024 78.42C30.464 78.1333 30.9707 77.99 31.544 77.99ZM31.544 78.77C30.944 78.77 30.4773 78.9967 30.144 79.45C29.8107 79.9033 29.644 80.61 29.644 81.57C29.644 82.5233 29.8107 83.2233 30.144 83.67C30.484 84.1167 30.9507 84.34 31.544 84.34C32.8107 84.34 33.444 83.4133 33.444 81.56C33.444 79.7 32.8107 78.77 31.544 78.77ZM38.4678 77.99C39.0478 77.99 39.5545 78.13 39.9878 78.41C40.4278 78.6833 40.7678 79.0867 41.0078 79.62C41.2545 80.1533 41.3778 80.8 41.3778 81.56C41.3778 82.3067 41.2545 82.9467 41.0078 83.48C40.7678 84.0133 40.4278 84.42 39.9878 84.7C39.5545 84.98 39.0478 85.12 38.4678 85.12C37.8878 85.12 37.3778 84.9833 36.9378 84.71C36.5045 84.4367 36.1645 84.0333 35.9178 83.5C35.6778 82.9667 35.5578 82.3233 35.5578 81.57C35.5578 80.83 35.6778 80.19 35.9178 79.65C36.1645 79.11 36.5078 78.7 36.9478 78.42C37.3878 78.1333 37.8945 77.99 38.4678 77.99ZM38.4678 78.77C37.8678 78.77 37.4011 78.9967 37.0678 79.45C36.7345 79.9033 36.5678 80.61 36.5678 81.57C36.5678 82.5233 36.7345 83.2233 37.0678 83.67C37.4078 84.1167 37.8745 84.34 38.4678 84.34C39.7345 84.34 40.3678 83.4133 40.3678 81.56C40.3678 79.7 39.7345 78.77 38.4678 78.77ZM46.6501 78.11L46.5501 78.92H44.6401V85H43.6901V78.92H41.7301V78.11H46.6501ZM49.2508 77.99C49.7108 77.99 50.1041 78.0567 50.4308 78.19C50.7574 78.3167 51.0741 78.5167 51.3808 78.79L50.8608 79.37C50.6008 79.1633 50.3441 79.0133 50.0908 78.92C49.8441 78.82 49.5774 78.77 49.2908 78.77C48.9308 78.77 48.6341 78.8533 48.4008 79.02C48.1674 79.1867 48.0508 79.43 48.0508 79.75C48.0508 79.95 48.0908 80.12 48.1708 80.26C48.2508 80.3933 48.3974 80.5167 48.6108 80.63C48.8308 80.7433 49.1474 80.8633 49.5608 80.99C49.9941 81.1233 50.3541 81.2667 50.6408 81.42C50.9274 81.5733 51.1574 81.7867 51.3308 82.06C51.5108 82.3267 51.6008 82.6667 51.6008 83.08C51.6008 83.48 51.5008 83.8333 51.3008 84.14C51.1074 84.4467 50.8241 84.6867 50.4508 84.86C50.0841 85.0333 49.6474 85.12 49.1408 85.12C48.1874 85.12 47.4074 84.8233 46.8008 84.23L47.3208 83.65C47.6008 83.8767 47.8841 84.05 48.1708 84.17C48.4574 84.2833 48.7774 84.34 49.1308 84.34C49.5574 84.34 49.9108 84.2367 50.1908 84.03C50.4708 83.8167 50.6108 83.51 50.6108 83.11C50.6108 82.8833 50.5674 82.6967 50.4808 82.55C50.3941 82.3967 50.2441 82.26 50.0308 82.14C49.8241 82.02 49.5208 81.9 49.1208 81.78C48.4141 81.5667 47.8974 81.31 47.5708 81.01C47.2441 80.71 47.0808 80.3033 47.0808 79.79C47.0808 79.4433 47.1708 79.1333 47.3508 78.86C47.5374 78.5867 47.7941 78.3733 48.1208 78.22C48.4541 78.0667 48.8308 77.99 49.2508 77.99ZM56.8454 78.11L56.7454 78.92H54.8354V85H53.8854V78.92H51.9254V78.11H56.8454ZM59.9614 82.08H58.8914V85H57.9414V78.11H59.7514C60.6114 78.11 61.2614 78.2733 61.7014 78.6C62.1481 78.9267 62.3714 79.4133 62.3714 80.06C62.3714 80.54 62.2481 80.93 62.0014 81.23C61.7547 81.53 61.3814 81.7567 60.8814 81.91L62.7414 85H61.6114L59.9614 82.08ZM59.8514 81.35C60.3514 81.35 60.7281 81.25 60.9814 81.05C61.2347 80.8433 61.3614 80.5133 61.3614 80.06C61.3614 79.6333 61.2314 79.3267 60.9714 79.14C60.7181 78.9467 60.3081 78.85 59.7414 78.85H58.8914V81.35H59.8514ZM67.6661 85L67.1461 83.27H64.5361L64.0161 85H63.0561L65.2661 78.11H66.4661L68.6661 85H67.6661ZM64.7661 82.5H66.9161L65.8461 78.9L64.7661 82.5ZM71.5385 78.11C72.3918 78.11 73.0518 78.29 73.5185 78.65C73.9852 79.0033 74.2185 79.5333 74.2185 80.24C74.2185 80.9933 73.9752 81.5533 73.4885 81.92C73.0018 82.2867 72.3552 82.47 71.5485 82.47H70.6785V85H69.7285V78.11H71.5385ZM71.5085 81.72C72.0618 81.72 72.4818 81.6133 72.7685 81.4C73.0618 81.1867 73.2085 80.8033 73.2085 80.25C73.2085 79.7567 73.0618 79.4 72.7685 79.18C72.4818 78.96 72.0685 78.85 71.5285 78.85H70.6785V81.72H71.5085Z" fill="#525252"/>
<path d="M29.2953 25.1327C29.2047 22.4622 31.2305 20 33.9698 20H62.0345C64.7738 20 66.7996 22.4622 66.7091 25.1327C66.6218 27.6975 66.7353 31.0204 67.5491 33.7291C68.3662 36.4465 69.744 38.1647 72 38.3851V40.8876C69.744 41.108 68.3662 42.8262 67.5491 45.5436C66.7342 48.2524 66.6218 51.5753 66.7091 54.14C66.7985 56.8105 64.7727 59.2727 62.0335 59.2727H33.9698C31.2305 59.2727 29.2047 56.8105 29.2953 54.14C29.3825 51.5753 29.2691 48.2524 28.4542 45.5436C27.6382 42.8262 26.2571 41.108 24 40.8876V38.3851C26.256 38.1647 27.6382 36.4465 28.4542 33.7291C29.2691 31.0204 29.3825 27.6975 29.2953 25.1327Z" fill="#7A7A7A"/>
<path d="M51.0438 39.0375V39.0059C53.1286 38.6459 54.7551 36.6921 54.7551 34.5397C54.7551 33.0179 54.1704 31.7295 53.0631 30.8132C51.9602 29.9001 50.4111 29.4168 48.5849 29.4168H40.2188V49.8539H48.6286C50.8137 49.8539 52.6278 49.3205 53.8737 48.3103C55.1217 47.299 55.7817 45.8274 55.7817 44.0546C55.7817 41.3775 53.8791 39.3659 51.0438 39.0375ZM47.1264 38.0743H43.5482V32.0917H47.806C50.1417 32.0917 51.4278 33.1161 51.4278 34.9772C51.4268 36.9746 49.8995 38.0743 47.1264 38.0743ZM43.5482 40.579H47.7766C50.8311 40.579 52.3802 41.683 52.3802 43.8594C52.3802 46.0335 50.8529 47.1823 47.9642 47.1823H43.5482V40.579Z" fill="white"/>
</svg>
