<svg width="96" height="96" viewBox="0 0 96 96" fill="none" xmlns="http://www.w3.org/2000/svg">
<rect width="96" height="96" rx="5" fill="url(#paint0_linear_155_2)" fill-opacity="0.4"/>
<path d="M38.6986 83.51C38.6986 82.83 38.8519 82.22 39.1586 81.68C39.4652 81.1333 39.8819 80.7067 40.4086 80.4C40.9419 80.0933 41.5319 79.94 42.1786 79.94C42.9386 79.94 43.6019 80.1233 44.1686 80.49C44.7352 80.8567 45.1486 81.3767 45.4086 82.05H44.3186C44.1252 81.63 43.8452 81.3067 43.4786 81.08C43.1186 80.8533 42.6852 80.74 42.1786 80.74C41.6919 80.74 41.2552 80.8533 40.8686 81.08C40.4819 81.3067 40.1786 81.63 39.9586 82.05C39.7386 82.4633 39.6286 82.95 39.6286 83.51C39.6286 84.0633 39.7386 84.55 39.9586 84.97C40.1786 85.3833 40.4819 85.7033 40.8686 85.93C41.2552 86.1567 41.6919 86.27 42.1786 86.27C42.6852 86.27 43.1186 86.16 43.4786 85.94C43.8452 85.7133 44.1252 85.39 44.3186 84.97H45.4086C45.1486 85.6367 44.7352 86.1533 44.1686 86.52C43.6019 86.88 42.9386 87.06 42.1786 87.06C41.5319 87.06 40.9419 86.91 40.4086 86.61C39.8819 86.3033 39.4652 85.88 39.1586 85.34C38.8519 84.8 38.6986 84.19 38.6986 83.51ZM48.9732 87.07C48.5132 87.07 48.0998 86.99 47.7332 86.83C47.3732 86.6633 47.0898 86.4367 46.8832 86.15C46.6765 85.8567 46.5698 85.52 46.5632 85.14H47.5332C47.5665 85.4667 47.6998 85.7433 47.9332 85.97C48.1732 86.19 48.5198 86.3 48.9732 86.3C49.4065 86.3 49.7465 86.1933 49.9932 85.98C50.2465 85.76 50.3732 85.48 50.3732 85.14C50.3732 84.8733 50.2998 84.6567 50.1532 84.49C50.0065 84.3233 49.8232 84.1967 49.6032 84.11C49.3832 84.0233 49.0865 83.93 48.7132 83.83C48.2532 83.71 47.8832 83.59 47.6032 83.47C47.3298 83.35 47.0932 83.1633 46.8932 82.91C46.6998 82.65 46.6032 82.3033 46.6032 81.87C46.6032 81.49 46.6998 81.1533 46.8932 80.86C47.0865 80.5667 47.3565 80.34 47.7032 80.18C48.0565 80.02 48.4598 79.94 48.9132 79.94C49.5665 79.94 50.0998 80.1033 50.5132 80.43C50.9332 80.7567 51.1698 81.19 51.2232 81.73H50.2232C50.1898 81.4633 50.0498 81.23 49.8032 81.03C49.5565 80.8233 49.2298 80.72 48.8232 80.72C48.4432 80.72 48.1332 80.82 47.8932 81.02C47.6532 81.2133 47.5332 81.4867 47.5332 81.84C47.5332 82.0933 47.6032 82.3 47.7432 82.46C47.8898 82.62 48.0665 82.7433 48.2732 82.83C48.4865 82.91 48.7832 83.0033 49.1632 83.11C49.6232 83.2367 49.9932 83.3633 50.2732 83.49C50.5532 83.61 50.7932 83.8 50.9932 84.06C51.1932 84.3133 51.2932 84.66 51.2932 85.1C51.2932 85.44 51.2032 85.76 51.0232 86.06C50.8432 86.36 50.5765 86.6033 50.2232 86.79C49.8698 86.9767 49.4532 87.07 48.9732 87.07ZM54.8423 87.07C54.3823 87.07 53.969 86.99 53.6023 86.83C53.2423 86.6633 52.959 86.4367 52.7523 86.15C52.5456 85.8567 52.439 85.52 52.4323 85.14H53.4023C53.4356 85.4667 53.569 85.7433 53.8023 85.97C54.0423 86.19 54.389 86.3 54.8423 86.3C55.2756 86.3 55.6156 86.1933 55.8623 85.98C56.1156 85.76 56.2423 85.48 56.2423 85.14C56.2423 84.8733 56.169 84.6567 56.0223 84.49C55.8756 84.3233 55.6923 84.1967 55.4723 84.11C55.2523 84.0233 54.9556 83.93 54.5823 83.83C54.1223 83.71 53.7523 83.59 53.4723 83.47C53.199 83.35 52.9623 83.1633 52.7623 82.91C52.569 82.65 52.4723 82.3033 52.4723 81.87C52.4723 81.49 52.569 81.1533 52.7623 80.86C52.9556 80.5667 53.2256 80.34 53.5723 80.18C53.9256 80.02 54.329 79.94 54.7823 79.94C55.4356 79.94 55.969 80.1033 56.3823 80.43C56.8023 80.7567 57.039 81.19 57.0923 81.73H56.0923C56.059 81.4633 55.919 81.23 55.6723 81.03C55.4256 80.8233 55.099 80.72 54.6923 80.72C54.3123 80.72 54.0023 80.82 53.7623 81.02C53.5223 81.2133 53.4023 81.4867 53.4023 81.84C53.4023 82.0933 53.4723 82.3 53.6123 82.46C53.759 82.62 53.9356 82.7433 54.1423 82.83C54.3556 82.91 54.6523 83.0033 55.0323 83.11C55.4923 83.2367 55.8623 83.3633 56.1423 83.49C56.4223 83.61 56.6623 83.8 56.8623 84.06C57.0623 84.3133 57.1623 84.66 57.1623 85.1C57.1623 85.44 57.0723 85.76 56.8923 86.06C56.7123 86.36 56.4456 86.6033 56.0923 86.79C55.739 86.9767 55.3223 87.07 54.8423 87.07Z" fill="#43267E"/>
<path d="M24.1889 22.166L27.9105 64.3402C28.0649 66.0926 29.2846 67.5702 30.9761 68.0532L46.0537 72.3613C47.3259 72.7254 48.6731 72.7254 49.9453 72.3613L65.0229 68.0532C66.7144 67.5702 67.9341 66.094 68.0886 64.3402L71.8101 22.166C71.9575 20.5085 70.6527 19.0833 68.9896 19.0833H27.0109C25.3477 19.0833 24.043 20.5085 24.1889 22.166Z" fill="url(#paint1_linear_155_2)"/>
<path d="M48 23.3333V68.525L61.991 64.5272C63.1201 64.2042 63.9332 63.2182 64.0352 62.0494L67.2737 24.8732C67.346 24.0445 66.6943 23.3333 65.8627 23.3333H48Z" fill="#D5B1FA" fill-opacity="0.88"/>
<path d="M60.8917 30.4167H48V36.0833H54.9417L54.5167 41.75H48V47.4167H54.2333L53.8083 53.7917L48 55.775V61.725L59.1917 58.0417L60.1833 41.75L60.8917 30.4167Z" fill="white"/>
<path d="M48.0001 30.4167V36.0833H35.3918L34.9668 30.4167H48.0001ZM41.4835 41.75L41.7668 47.4167H48.0001V41.75H41.4835ZM42.0501 50.25H36.3835L36.8085 58.0417L48.0001 61.725V55.775L42.1918 53.7917L42.0501 50.25Z" fill="#D6E0E9"/>
<path opacity="0.05" d="M60.8916 30.4167L60.1833 41.75L59.1916 58.0417L48 61.725L36.8083 58.0417L36.3833 50.25H42.05L42.1916 53.7917L48 55.775L53.8083 53.7917L54.2333 47.4167H48H41.7666L41.4833 41.75H48H54.5166L54.9416 36.0833H48H35.3916L34.9666 30.4167H48H60.8916ZM62.399 29H60.8916H48H34.9666H33.4395L33.5542 30.5229L33.9792 36.1896L34.077 37.5H35.3916H48H53.4145L53.202 40.3333H48H41.4833H39.9944L40.068 41.8208L40.3514 47.4875L40.4194 48.8333H36.3833H34.8873L34.9695 50.3265L35.3945 58.1182L35.4469 59.0843L36.3663 59.3875L47.558 63.0708L48 63.2167L48.4434 63.0708L59.635 59.3875L60.5474 59.0872L60.6054 58.1281L61.5971 41.8364L62.3055 30.5059L62.399 29ZM43.4114 48.8333H48H52.7189L52.4568 52.7561L48 54.2776L43.5686 52.7646L43.4652 50.1933L43.4114 48.8333Z" fill="black"/>
<path opacity="0.07" d="M60.8917 30.4167L60.1834 41.75L59.1917 58.0417L48 61.725L36.8084 58.0417L36.3834 50.25H42.05L42.1917 53.7917L48 55.775L53.8084 53.7917L54.2334 47.4167H48H41.7667L41.4834 41.75H48H54.5167L54.9417 36.0833H48H35.3917L34.9667 30.4167H48H60.8917ZM61.6454 29.7083H60.8917H48H34.9667H34.2031L34.2598 30.4691L34.6848 36.1357L34.7344 36.7917H35.3917H48H54.1781L53.8594 41.0417H48H41.4834H40.7382L40.775 41.7854L41.0584 47.4521L41.0924 48.125H41.7667H48H53.4769L53.134 53.2732L48 55.027L42.8802 53.2788L42.7584 50.2217L42.73 49.5417H42.05H36.3834H35.6354L35.6765 50.2882L36.1015 58.0799L36.1284 58.563L36.5874 58.7146L47.779 62.3979L48 62.4702L48.221 62.3979L59.4127 58.7146L59.8689 58.5644L59.8986 58.0842L60.8903 41.7925L61.5986 30.4606L61.6454 29.7083Z" fill="black"/>
<defs>
<linearGradient id="paint0_linear_155_2" x1="48" y1="0" x2="48" y2="96" gradientUnits="userSpaceOnUse">
<stop stop-color="#FE00B7" stop-opacity="0.3"/>
<stop offset="1" stop-color="#5200FF" stop-opacity="0.7"/>
</linearGradient>
<linearGradient id="paint1_linear_155_2" x1="24" y1="19" x2="63" y2="73" gradientUnits="userSpaceOnUse">
<stop stop-color="#FF7BDA"/>
<stop offset="0.935529" stop-color="#9180FF"/>
</linearGradient>
</defs>
</svg>
