<svg width="22" height="21" viewBox="0 0 22 21" fill="none" xmlns="http://www.w3.org/2000/svg">
<path d="M20 1.20238C18.89 0.789328 17.67 0.612305 16.5 0.612305C14.55 0.612305 12.45 1.08437 11 2.38254C9.55 1.08437 7.45 0.612305 5.5 0.612305C3.55 0.612305 1.45 1.08437 0 2.38254V19.6719C0 19.9669 0.25 20.2619 0.5 20.2619C0.6 20.2619 0.65 20.2029 0.75 20.2029C2.1 19.4358 4.05 18.9048 5.5 18.9048C7.45 18.9048 9.55 19.3768 11 20.675C12.35 19.6719 14.8 18.9048 16.5 18.9048C18.15 18.9048 19.85 19.2588 21.25 20.1439C21.35 20.2029 21.4 20.2029 21.5 20.2029C21.75 20.2029 22 19.9079 22 19.6129V2.38254C21.4 1.85147 20.75 1.49742 20 1.20238ZM20 17.1345C18.9 16.7215 17.7 16.5444 16.5 16.5444C14.8 16.5444 12.35 17.3115 11 18.3147V4.74286C12.35 3.73973 14.8 2.97262 16.5 2.97262C17.7 2.97262 18.9 3.14965 20 3.5627V17.1345Z" fill="url(#paint0_linear_25_21)"/>
<defs>
<linearGradient id="paint0_linear_25_21" x1="11" y1="20.675" x2="11" y2="0.612305" gradientUnits="userSpaceOnUse">
<stop stop-color="#67DD0A"/>
<stop offset="1" stop-color="#B6F829"/>
</linearGradient>
</defs>
</svg>
