<svg width="40" height="40" viewBox="0 0 40 40" fill="none" xmlns="http://www.w3.org/2000/svg">
<g clip-path="url(#clip0_124_225)">
<path d="M33.3335 6.66663H6.66683C4.8335 6.66663 3.35016 8.16663 3.35016 9.99996L3.3335 30C3.3335 31.8333 4.8335 33.3333 6.66683 33.3333H33.3335C35.1668 33.3333 36.6668 31.8333 36.6668 30V9.99996C36.6668 8.16663 35.1668 6.66663 33.3335 6.66663ZM32.6668 13.75L20.8835 21.1166C20.3502 21.45 19.6502 21.45 19.1168 21.1166L7.3335 13.75C6.91683 13.4833 6.66683 13.0333 6.66683 12.55C6.66683 11.4333 7.8835 10.7666 8.8335 11.35L20.0002 18.3333L31.1668 11.35C32.1168 10.7666 33.3335 11.4333 33.3335 12.55C33.3335 13.0333 33.0835 13.4833 32.6668 13.75Z" fill="#E8EAED"/>
</g>
<defs>
<clipPath id="clip0_124_225">
<rect width="40" height="40" fill="white"/>
</clipPath>
</defs>
</svg>
