<svg width="32" height="32" viewBox="0 0 32 32" fill="none" xmlns="http://www.w3.org/2000/svg">
<circle cx="16" cy="16" r="15" fill="url(#paint0_linear_56_13)"/>
<path d="M12.996 20V11.6H16.812C17.724 11.6 18.528 11.776 19.224 12.128C19.92 12.472 20.464 12.956 20.856 13.58C21.248 14.204 21.444 14.944 21.444 15.8C21.444 16.648 21.248 17.388 20.856 18.02C20.464 18.644 19.92 19.132 19.224 19.484C18.528 19.828 17.724 20 16.812 20H12.996ZM14.94 18.404H16.716C17.276 18.404 17.76 18.3 18.168 18.092C18.584 17.876 18.904 17.572 19.128 17.18C19.36 16.788 19.476 16.328 19.476 15.8C19.476 15.264 19.36 14.804 19.128 14.42C18.904 14.028 18.584 13.728 18.168 13.52C17.76 13.304 17.276 13.196 16.716 13.196H14.94V18.404Z" fill="#553699"/>
<defs>
<linearGradient id="paint0_linear_56_13" x1="36" y1="34" x2="4.99999" y2="6.00001" gradientUnits="userSpaceOnUse">
<stop offset="0.197989" stop-color="#FF7BDA"/>
<stop offset="1" stop-color="#9180FF"/>
</linearGradient>
</defs>
</svg>
