<svg width="96" height="96" viewBox="0 0 96 96" fill="none" xmlns="http://www.w3.org/2000/svg">
<rect x="1" y="1" width="94" height="94" rx="4" fill="#CCCCCC" stroke="#B8B8B8" stroke-width="2"/>
<path d="M35 85V78.11H38.66L38.55 78.87H35.95V81.22H38.2V81.97H35.95V85H35ZM40.8621 78.11V85H39.9121V78.11H40.8621ZM45.4013 77.99C45.8347 77.99 46.208 78.0533 46.5213 78.18C46.8413 78.3 47.158 78.49 47.4713 78.75L46.9113 79.33C46.6647 79.13 46.428 78.9867 46.2013 78.9C45.9747 78.8133 45.708 78.77 45.4013 78.77C45.048 78.77 44.7213 78.8667 44.4213 79.06C44.128 79.2467 43.888 79.55 43.7013 79.97C43.5147 80.3833 43.4213 80.91 43.4213 81.55C43.4213 82.5167 43.578 83.2233 43.8913 83.67C44.2113 84.1167 44.6813 84.34 45.3013 84.34C45.808 84.34 46.2447 84.2367 46.6113 84.03V81.95H45.3913L45.2813 81.18H47.5513V84.51C46.838 84.9167 46.088 85.12 45.3013 85.12C44.3947 85.12 43.6847 84.8167 43.1713 84.21C42.6647 83.6033 42.4113 82.7167 42.4113 81.55C42.4113 80.8033 42.5447 80.1633 42.8113 79.63C43.0847 79.09 43.448 78.6833 43.9013 78.41C44.3613 78.13 44.8613 77.99 45.4013 77.99ZM55.3299 85H54.4099L54.1699 81.89C54.0699 80.67 54.0133 79.7333 53.9999 79.08L52.5099 84.22H51.6199L50.0499 79.07C50.0499 79.9033 50.0066 80.8667 49.9199 81.96L49.6899 85H48.7899L49.3599 78.11H50.6399L52.0899 83.12L53.4699 78.11H54.7599L55.3299 85ZM60.6231 85L60.1031 83.27H57.4931L56.9731 85H56.0131L58.2231 78.11H59.4231L61.6231 85H60.6231ZM57.7231 82.5H59.8731L58.8031 78.9L57.7231 82.5Z" fill="#525252"/>
<path d="M47 18V32H40C36.145 32 33 28.855 33 25C33 21.145 36.145 18 40 18H47ZM47 34V48H40C36.145 48 33 44.855 33 41C33 37.145 36.145 34 40 34H47ZM47 50V57C47 60.855 43.855 64 40 64C36.145 64 33 60.855 33 57C33 53.145 36.145 50 40 50H47ZM63 25C63 28.855 59.855 32 56 32H49V18H56C59.855 18 63 21.145 63 25ZM56 34C54.1435 34 52.363 34.7375 51.0503 36.0503C49.7375 37.363 49 39.1435 49 41C49 42.8565 49.7375 44.637 51.0503 45.9497C52.363 47.2625 54.1435 48 56 48C57.8565 48 59.637 47.2625 60.9497 45.9497C62.2625 44.637 63 42.8565 63 41C63 39.1435 62.2625 37.363 60.9497 36.0503C59.637 34.7375 57.8565 34 56 34Z" fill="#7A7A7A"/>
</svg>
