<svg width="96" height="96" viewBox="0 0 96 96" fill="none" xmlns="http://www.w3.org/2000/svg">
<rect width="96" height="96" rx="5" fill="url(#paint0_linear_127_41)" fill-opacity="0.4"/>
<path d="M25.3335 17.1875H73.5002L67.8335 66.0625L49.4168 71.8125L29.5835 66.0625L25.3335 17.1875Z" fill="url(#paint1_linear_127_41)"/>
<path d="M68.7257 21.5L63.9373 62.7706L49.4165 67.2988V21.5H68.7257Z" fill="#D5B1FA"/>
<path d="M49.4166 40.1875L50.8333 43.0625L49.4166 45.9375H36.3691L37.5733 27.25H49.4166L50.8333 30.125L49.4166 33H43.7925L43.325 40.1875H49.4166Z" fill="#FAF9F8"/>
<path d="M49.2748 56.8194L49.4165 56.7763L50.8331 60.3125L49.4165 62.785L49.3315 62.8138L37.5306 59.3925L36.7373 50.25H42.4323L42.829 54.9506L49.2748 56.8194Z" fill="#EBEBEB"/>
<path d="M62.2657 40.1875L60.0415 59.4787L49.4165 62.785V56.7763L54.8423 55.08L55.8907 45.9375H49.4165V40.1875H62.2657Z" fill="white"/>
<path d="M63.4698 35.875H57.8173L57.449 33H49.4165V27.25H62.3507L62.5915 29.0613L63.4698 35.875Z" fill="white"/>
<path d="M41.14 80.03V87H40.23V83.84H36.68V87H35.77V80.03H36.68V83.09H40.23V80.03H41.14ZM46.9838 80.03V80.77H45.0838V87H44.1738V80.77H42.2638V80.03H46.9838ZM55.174 80.08V87H54.264V81.84L51.964 87H51.324L49.014 81.83V87H48.104V80.08H49.084L51.644 85.8L54.204 80.08H55.174ZM57.6273 86.26H60.0673V87H56.7173V80.03H57.6273V86.26Z" fill="#43267E"/>
<defs>
<linearGradient id="paint0_linear_127_41" x1="48" y1="0" x2="48" y2="96" gradientUnits="userSpaceOnUse">
<stop stop-color="#FE00B7" stop-opacity="0.3"/>
<stop offset="1" stop-color="#5200FF" stop-opacity="0.7"/>
</linearGradient>
<linearGradient id="paint1_linear_127_41" x1="37" y1="5.5" x2="58.5" y2="72" gradientUnits="userSpaceOnUse">
<stop stop-color="#FF7BDA"/>
<stop offset="1" stop-color="#9180FF"/>
</linearGradient>
</defs>
</svg>
