<svg width="40" height="40" viewBox="0 0 40 40" fill="none" xmlns="http://www.w3.org/2000/svg">
<path fill-rule="evenodd" clip-rule="evenodd" d="M32.4008 7.5859C30.7829 5.9672 28.8608 4.6845 26.7451 3.81164C24.6295 2.93878 22.3621 2.493 20.0734 2.49996C10.4688 2.49996 2.65 10.2796 2.64609 19.8437C2.64184 22.8891 3.44461 25.8813 4.97266 28.5156L2.5 37.5L11.7383 35.0882C14.2955 36.4736 17.1581 37.1986 20.0664 37.1976H20.0734C29.6773 37.1976 37.4953 29.4171 37.5 19.8539C37.5058 17.5731 37.058 15.3139 36.1826 13.2077C35.3071 11.1016 34.0216 9.19058 32.4008 7.5859ZM20.0734 34.2703H20.0672C17.4745 34.271 14.929 33.5772 12.6953 32.2609L12.1664 31.9484L6.68437 33.3796L8.14766 28.0601L7.80312 27.5132C6.35343 25.2181 5.58535 22.5584 5.58828 19.8437C5.58828 11.8961 12.0891 5.42965 20.0789 5.42965C23.9117 5.4228 27.5903 6.93866 30.3055 9.6438C33.0208 12.3489 34.5504 16.0218 34.5578 19.8546C34.5547 27.8031 28.057 34.2703 20.0734 34.2703ZM28.018 23.4742C27.5828 23.257 25.4398 22.2086 25.043 22.064C24.6461 21.9195 24.3531 21.8468 24.0633 22.2812C23.7734 22.7156 22.9383 23.6875 22.6844 23.9804C22.4305 24.2734 22.1766 24.3054 21.7414 24.0882C21.3063 23.8711 19.9023 23.414 18.2391 21.9375C16.9445 20.7882 16.0711 19.3695 15.8172 18.9359C15.5633 18.5023 15.7898 18.2671 16.0078 18.0515C16.2039 17.857 16.443 17.5453 16.6609 17.2921C16.8789 17.039 16.9516 16.8578 17.0961 16.5687C17.2406 16.2796 17.1687 16.0265 17.0602 15.8101C16.9516 15.5937 16.0805 13.4601 15.718 12.5921C15.3641 11.7468 15.0055 11.8617 14.7383 11.8484C14.4844 11.8359 14.1914 11.8328 13.9031 11.8328C13.6827 11.8385 13.4659 11.8896 13.2662 11.9829C13.0664 12.0762 12.888 12.2097 12.7422 12.375C12.343 12.8093 11.218 13.8593 11.218 15.9906C11.218 18.1218 12.7805 20.1843 12.9961 20.4734C13.2117 20.7625 16.0664 25.1398 20.4344 27.0171C21.2455 27.3645 22.0742 27.6691 22.9172 27.9296C23.9602 28.2593 24.9094 28.2132 25.6594 28.1015C26.4961 27.9773 28.2375 27.0531 28.5992 26.0406C28.9609 25.0281 28.9617 24.1609 28.8531 23.9804C28.7445 23.8 28.4539 23.6906 28.018 23.4742Z" fill="white"/>
</svg>
