<svg width="96" height="96" viewBox="0 0 96 96" fill="none" xmlns="http://www.w3.org/2000/svg">
<rect width="96" height="96" rx="5" fill="url(#paint0_linear_127_80)" fill-opacity="0.4"/>
<path d="M22.5 68.5V17.5H73.5V68.5H22.5Z" fill="url(#paint1_linear_127_80)"/>
<path d="M55.8454 55.6749C56.8258 57.2673 57.8911 58.793 60.1478 58.793C62.0433 58.793 63.0378 57.8509 63.0378 56.5476C63.0378 54.9878 62.0093 54.4339 59.924 53.5258L58.7808 53.0385C55.4813 51.6388 53.2869 49.885 53.2869 46.1804C53.2869 42.7663 55.9007 40.1681 59.9849 40.1681C62.8933 40.1681 64.9829 41.1753 66.4903 43.8132L62.9288 46.0898C62.1453 44.6901 61.2982 44.139 59.9849 44.139C58.6448 44.139 57.7962 44.9848 57.7962 46.0898C57.7962 47.4554 58.6462 48.0079 60.6083 48.8537L61.7515 49.341C65.6403 50.9971 67.8333 52.6886 67.8333 56.4909C67.8333 60.5879 64.5976 62.8333 60.2541 62.8333C56.0055 62.8333 53.5929 60.7013 52.2499 58.062L55.8454 55.6749ZM39.4319 55.7911C40.1488 57.0746 41.2382 58.062 42.805 58.062C44.3038 58.062 45.1666 57.4698 45.1666 55.1678V40.1667H49.8883V55.8931C49.8883 60.663 47.1216 62.8333 43.0813 62.8333C39.4305 62.8333 36.7955 60.3598 35.7217 58.062L39.4319 55.7911Z" fill="#000001"/>
<path d="M28.1 85.04C28.1 85.72 27.95 86.23 27.65 86.57C27.3567 86.91 26.9067 87.1767 26.3 87.37L26.05 86.68C26.3567 86.56 26.5867 86.43 26.74 86.29C26.8933 86.15 27 85.98 27.06 85.78C27.12 85.58 27.15 85.32 27.15 85V79.11H28.1V85.04ZM33.5469 84.77C33.5469 84.9833 33.5835 85.1433 33.6569 85.25C33.7302 85.35 33.8402 85.4267 33.9869 85.48L33.7769 86.12C33.5035 86.0867 33.2835 86.01 33.1169 85.89C32.9502 85.77 32.8269 85.5833 32.7469 85.33C32.3935 85.8567 31.8702 86.12 31.1769 86.12C30.6569 86.12 30.2469 85.9733 29.9469 85.68C29.6469 85.3867 29.4969 85.0033 29.4969 84.53C29.4969 83.97 29.6969 83.54 30.0969 83.24C30.5035 82.94 31.0769 82.79 31.8169 82.79H32.6269V82.4C32.6269 82.0267 32.5369 81.76 32.3569 81.6C32.1769 81.44 31.9002 81.36 31.5269 81.36C31.1402 81.36 30.6669 81.4533 30.1069 81.64L29.8769 80.97C30.5302 80.73 31.1369 80.61 31.6969 80.61C32.3169 80.61 32.7802 80.7633 33.0869 81.07C33.3935 81.37 33.5469 81.8 33.5469 82.36V84.77ZM31.3869 85.43C31.9135 85.43 32.3269 85.1567 32.6269 84.61V83.4H31.9369C30.9635 83.4 30.4769 83.76 30.4769 84.48C30.4769 84.7933 30.5535 85.03 30.7069 85.19C30.8602 85.35 31.0869 85.43 31.3869 85.43ZM39.1598 80.73L37.3698 86H36.2598L34.4398 80.73H35.4398L36.8198 85.18L38.1898 80.73H39.1598ZM43.6055 84.77C43.6055 84.9833 43.6421 85.1433 43.7155 85.25C43.7888 85.35 43.8988 85.4267 44.0455 85.48L43.8355 86.12C43.5621 86.0867 43.3421 86.01 43.1755 85.89C43.0088 85.77 42.8855 85.5833 42.8055 85.33C42.4521 85.8567 41.9288 86.12 41.2355 86.12C40.7155 86.12 40.3055 85.9733 40.0055 85.68C39.7055 85.3867 39.5555 85.0033 39.5555 84.53C39.5555 83.97 39.7555 83.54 40.1555 83.24C40.5621 82.94 41.1355 82.79 41.8755 82.79H42.6855V82.4C42.6855 82.0267 42.5955 81.76 42.4155 81.6C42.2355 81.44 41.9588 81.36 41.5855 81.36C41.1988 81.36 40.7255 81.4533 40.1655 81.64L39.9355 80.97C40.5888 80.73 41.1955 80.61 41.7555 80.61C42.3755 80.61 42.8388 80.7633 43.1455 81.07C43.4521 81.37 43.6055 81.8 43.6055 82.36V84.77ZM41.4455 85.43C41.9721 85.43 42.3855 85.1567 42.6855 84.61V83.4H41.9955C41.0221 83.4 40.5355 83.76 40.5355 84.48C40.5355 84.7933 40.6121 85.03 40.7655 85.19C40.9188 85.35 41.1455 85.43 41.4455 85.43ZM47.2449 78.99C47.7049 78.99 48.0983 79.0567 48.4249 79.19C48.7516 79.3167 49.0683 79.5167 49.3749 79.79L48.8549 80.37C48.5949 80.1633 48.3383 80.0133 48.0849 79.92C47.8383 79.82 47.5716 79.77 47.2849 79.77C46.9249 79.77 46.6283 79.8533 46.3949 80.02C46.1616 80.1867 46.0449 80.43 46.0449 80.75C46.0449 80.95 46.0849 81.12 46.1649 81.26C46.2449 81.3933 46.3916 81.5167 46.6049 81.63C46.8249 81.7433 47.1416 81.8633 47.5549 81.99C47.9883 82.1233 48.3483 82.2667 48.6349 82.42C48.9216 82.5733 49.1516 82.7867 49.3249 83.06C49.5049 83.3267 49.5949 83.6667 49.5949 84.08C49.5949 84.48 49.4949 84.8333 49.2949 85.14C49.1016 85.4467 48.8183 85.6867 48.4449 85.86C48.0783 86.0333 47.6416 86.12 47.1349 86.12C46.1816 86.12 45.4016 85.8233 44.7949 85.23L45.3149 84.65C45.5949 84.8767 45.8783 85.05 46.1649 85.17C46.4516 85.2833 46.7716 85.34 47.1249 85.34C47.5516 85.34 47.9049 85.2367 48.1849 85.03C48.4649 84.8167 48.6049 84.51 48.6049 84.11C48.6049 83.8833 48.5616 83.6967 48.4749 83.55C48.3883 83.3967 48.2383 83.26 48.0249 83.14C47.8183 83.02 47.5149 82.9 47.1149 82.78C46.4083 82.5667 45.8916 82.31 45.5649 82.01C45.2383 81.71 45.0749 81.3033 45.0749 80.79C45.0749 80.4433 45.1649 80.1333 45.3449 79.86C45.5316 79.5867 45.7883 79.3733 46.1149 79.22C46.4483 79.0667 46.8249 78.99 47.2449 78.99ZM52.8641 80.61C53.1775 80.61 53.4641 80.6567 53.7241 80.75C53.9841 80.8367 54.2341 80.98 54.4741 81.18L54.0341 81.76C53.8475 81.6267 53.6641 81.53 53.4841 81.47C53.3108 81.4033 53.1175 81.37 52.9041 81.37C52.4775 81.37 52.1441 81.54 51.9041 81.88C51.6708 82.22 51.5541 82.7233 51.5541 83.39C51.5541 84.0567 51.6708 84.55 51.9041 84.87C52.1375 85.1833 52.4708 85.34 52.9041 85.34C53.1108 85.34 53.3008 85.31 53.4741 85.25C53.6475 85.1833 53.8408 85.08 54.0541 84.94L54.4741 85.54C53.9941 85.9267 53.4575 86.12 52.8641 86.12C52.1508 86.12 51.5875 85.88 51.1741 85.4C50.7675 84.92 50.5641 84.2567 50.5641 83.41C50.5641 82.85 50.6575 82.36 50.8441 81.94C51.0308 81.52 51.2941 81.1933 51.6341 80.96C51.9808 80.7267 52.3908 80.61 52.8641 80.61ZM58.0095 80.61C58.1962 80.61 58.3695 80.63 58.5295 80.67L58.3595 81.57C58.1995 81.53 58.0462 81.51 57.8995 81.51C57.5729 81.51 57.3095 81.63 57.1095 81.87C56.9095 82.11 56.7529 82.4833 56.6395 82.99V86H55.7195V80.73H56.5095L56.5995 81.8C56.7395 81.4067 56.9295 81.11 57.1695 80.91C57.4095 80.71 57.6895 80.61 58.0095 80.61ZM60.497 80.73V86H59.577V80.73H60.497ZM60.027 78.2C60.2203 78.2 60.377 78.26 60.497 78.38C60.617 78.5 60.677 78.65 60.677 78.83C60.677 79.01 60.617 79.16 60.497 79.28C60.377 79.3933 60.2203 79.45 60.027 79.45C59.8403 79.45 59.687 79.3933 59.567 79.28C59.447 79.16 59.387 79.01 59.387 78.83C59.387 78.65 59.447 78.5 59.567 78.38C59.687 78.26 59.8403 78.2 60.027 78.2ZM64.8192 80.61C65.4926 80.61 65.9859 80.85 66.2992 81.33C66.6126 81.81 66.7692 82.4867 66.7692 83.36C66.7692 84.1867 66.5892 84.8533 66.2292 85.36C65.8692 85.8667 65.3592 86.12 64.6992 86.12C64.1126 86.12 63.6526 85.92 63.3192 85.52V88.02L62.3992 88.13V80.73H63.1892L63.2592 81.44C63.4526 81.1733 63.6859 80.97 63.9592 80.83C64.2326 80.6833 64.5192 80.61 64.8192 80.61ZM64.4792 85.37C65.3459 85.37 65.7792 84.7 65.7792 83.36C65.7792 82.0133 65.3826 81.34 64.5892 81.34C64.3292 81.34 64.0926 81.4167 63.8792 81.57C63.6659 81.7233 63.4792 81.92 63.3192 82.16V84.73C63.4526 84.9367 63.6192 85.0967 63.8192 85.21C64.0192 85.3167 64.2392 85.37 64.4792 85.37ZM70.9967 85.76C70.6501 86 70.2567 86.12 69.8167 86.12C69.3701 86.12 69.0201 85.9933 68.7667 85.74C68.5201 85.48 68.3967 85.1067 68.3967 84.62V81.44H67.4767V80.73H68.3967V79.54L69.3167 79.43V80.73H70.5667L70.4667 81.44H69.3167V84.58C69.3167 84.8533 69.3634 85.0533 69.4567 85.18C69.5567 85.3 69.7201 85.36 69.9467 85.36C70.1534 85.36 70.3867 85.29 70.6467 85.15L70.9967 85.76Z" fill="#43267E"/>
<defs>
<linearGradient id="paint0_linear_127_80" x1="48" y1="0" x2="48" y2="96" gradientUnits="userSpaceOnUse">
<stop stop-color="#FE00B7" stop-opacity="0.3"/>
<stop offset="1" stop-color="#5200FF" stop-opacity="0.7"/>
</linearGradient>
<linearGradient id="paint1_linear_127_80" x1="23" y1="17" x2="74" y2="68" gradientUnits="userSpaceOnUse">
<stop stop-color="#FF7BDA"/>
<stop offset="1" stop-color="#9180FF"/>
</linearGradient>
</defs>
</svg>
