<svg width="359" height="47" viewBox="0 0 359 47" fill="none" xmlns="http://www.w3.org/2000/svg">
<path d="M0.855957 33.84V0.24H14.152C17.704 0.24 20.824 0.96 23.512 2.4C26.2 3.84 28.28 5.824 29.752 8.352C31.256 10.88 32.008 13.776 32.008 17.04C32.008 20.304 31.256 23.2 29.752 25.728C28.28 28.256 26.2 30.24 23.512 31.68C20.824 33.12 17.704 33.84 14.152 33.84H0.855957ZM3.30396 31.632H13.96C17.128 31.632 19.88 31.008 22.216 29.76C24.552 28.512 26.36 26.8 27.64 24.624C28.92 22.416 29.56 19.888 29.56 17.04C29.56 14.192 28.92 11.68 27.64 9.504C26.36 7.296 24.552 5.568 22.216 4.32C19.88 3.072 17.128 2.448 13.96 2.448H3.30396V31.632Z" fill="#141414"/>
<path d="M34.4275 33.84L49.8835 0.24H52.3315L67.7875 33.84H65.1475L50.5555 1.776H51.6115L37.0675 33.84H34.4275ZM40.0915 24.384L40.9075 22.32H61.0195L61.8355 24.384H40.0915Z" fill="#141414"/>
<path d="M73.8872 33.84V0.24H75.9512L99.9032 30.816H98.7992V0.24H101.247V33.84H99.2312L75.2312 3.264H76.3352V33.84H73.8872Z" fill="#141414"/>
<path d="M120.901 33.84V21.648L121.477 23.232L107.365 0.24H110.053L122.869 21.12H121.525L134.341 0.24H136.885L122.773 23.232L123.349 21.648V33.84H120.901Z" fill="#141414"/>
<path d="M144.344 15.696H162.536V17.856H144.344V15.696ZM144.632 31.632H165.368V33.84H142.184V0.24H164.648V2.448H144.632V31.632Z" fill="#141414"/>
<path d="M174.293 33.84V0.24H176.741V31.632H196.085V33.84H174.293Z" fill="#141414"/>
<path d="M223.532 34.08C221.036 34.08 218.668 33.664 216.428 32.832C214.22 31.968 212.508 30.864 211.292 29.52L212.396 27.696C213.548 28.88 215.116 29.888 217.1 30.72C219.116 31.52 221.244 31.92 223.484 31.92C225.724 31.92 227.548 31.632 228.956 31.056C230.396 30.448 231.452 29.648 232.124 28.656C232.828 27.664 233.18 26.56 233.18 25.344C233.18 23.904 232.796 22.752 232.028 21.888C231.26 21.024 230.252 20.336 229.004 19.824C227.756 19.312 226.396 18.88 224.924 18.528C223.452 18.176 221.964 17.808 220.46 17.424C218.956 17.008 217.58 16.48 216.332 15.84C215.084 15.2 214.076 14.336 213.308 13.248C212.572 12.128 212.204 10.688 212.204 8.928C212.204 7.328 212.62 5.856 213.452 4.512C214.284 3.168 215.58 2.08 217.34 1.248C219.1 0.416 221.356 0 224.108 0C225.964 0 227.788 0.272 229.58 0.816001C231.404 1.36 232.956 2.096 234.236 3.024L233.324 4.992C231.916 4.032 230.396 3.328 228.764 2.88C227.164 2.4 225.612 2.16 224.108 2.16C221.964 2.16 220.188 2.464 218.78 3.072C217.372 3.68 216.332 4.496 215.66 5.52C214.988 6.512 214.652 7.632 214.652 8.88C214.652 10.32 215.02 11.472 215.756 12.336C216.524 13.2 217.532 13.888 218.78 14.4C220.028 14.912 221.404 15.344 222.908 15.696C224.412 16.048 225.9 16.432 227.372 16.848C228.844 17.232 230.204 17.744 231.452 18.384C232.7 19.024 233.708 19.888 234.476 20.976C235.244 22.064 235.628 23.472 235.628 25.2C235.628 26.768 235.196 28.24 234.332 29.616C233.468 30.96 232.14 32.048 230.348 32.88C228.588 33.68 226.316 34.08 223.532 34.08Z" fill="#141414"/>
<path d="M238.334 33.84L253.79 0.24H256.238L271.694 33.84H269.054L254.462 1.776H255.518L240.974 33.84H238.334ZM243.998 24.384L244.814 22.32H264.926L265.742 24.384H243.998Z" fill="#141414"/>
<path d="M277.793 33.84V0.24H280.241V31.632H299.585V33.84H277.793Z" fill="#141414"/>
<path d="M308.032 15.696H326.224V17.856H308.032V15.696ZM308.32 31.632H329.056V33.84H305.872V0.24H328.336V2.448H308.32V31.632Z" fill="#141414"/>
<path d="M346.813 34.08C344.317 34.08 341.949 33.664 339.709 32.832C337.501 31.968 335.789 30.864 334.573 29.52L335.677 27.696C336.829 28.88 338.397 29.888 340.381 30.72C342.397 31.52 344.525 31.92 346.765 31.92C349.005 31.92 350.829 31.632 352.237 31.056C353.677 30.448 354.733 29.648 355.405 28.656C356.109 27.664 356.461 26.56 356.461 25.344C356.461 23.904 356.077 22.752 355.309 21.888C354.541 21.024 353.533 20.336 352.285 19.824C351.037 19.312 349.677 18.88 348.205 18.528C346.733 18.176 345.245 17.808 343.741 17.424C342.237 17.008 340.861 16.48 339.613 15.84C338.365 15.2 337.357 14.336 336.589 13.248C335.853 12.128 335.485 10.688 335.485 8.928C335.485 7.328 335.901 5.856 336.733 4.512C337.565 3.168 338.861 2.08 340.621 1.248C342.381 0.416 344.637 0 347.389 0C349.245 0 351.069 0.272 352.861 0.816001C354.685 1.36 356.237 2.096 357.517 3.024L356.605 4.992C355.197 4.032 353.677 3.328 352.045 2.88C350.445 2.4 348.893 2.16 347.389 2.16C345.245 2.16 343.469 2.464 342.061 3.072C340.653 3.68 339.613 4.496 338.941 5.52C338.269 6.512 337.933 7.632 337.933 8.88C337.933 10.32 338.301 11.472 339.037 12.336C339.805 13.2 340.813 13.888 342.061 14.4C343.309 14.912 344.685 15.344 346.189 15.696C347.693 16.048 349.181 16.432 350.653 16.848C352.125 17.232 353.485 17.744 354.733 18.384C355.981 19.024 356.989 19.888 357.757 20.976C358.525 22.064 358.909 23.472 358.909 25.2C358.909 26.768 358.477 28.24 357.613 29.616C356.749 30.96 355.421 32.048 353.629 32.88C351.869 33.68 349.597 34.08 346.813 34.08Z" fill="#141414"/>
<path d="M353 43.84C354.657 43.84 356 45.1832 356 46.84L215 46.84C213.343 46.84 212 45.4968 212 43.84L353 43.84Z" fill="url(#paint0_linear_124_174)"/>
<path d="M353 43.84C354.657 43.84 356 45.1832 356 46.84L215 46.84C213.343 46.84 212 45.4968 212 43.84L353 43.84Z" fill="url(#paint1_linear_124_174)"/>
<defs>
<linearGradient id="paint0_linear_124_174" x1="356" y1="45.2373" x2="212" y2="45.2373" gradientUnits="userSpaceOnUse">
<stop stop-color="#FF7BDA"/>
<stop offset="1" stop-color="#9180FF"/>
</linearGradient>
<linearGradient id="paint1_linear_124_174" x1="356" y1="45.2373" x2="212" y2="45.2373" gradientUnits="userSpaceOnUse">
<stop stop-color="#FF7BDA"/>
<stop offset="1" stop-color="#9180FF"/>
</linearGradient>
</defs>
</svg>
