<svg width="96" height="96" viewBox="0 0 96 96" fill="none" xmlns="http://www.w3.org/2000/svg">
<rect width="96" height="96" rx="5" fill="url(#paint0_linear_131_21)" fill-opacity="0.4"/>
<path d="M37.02 83.08H35.95V86H35V79.11H36.81C37.67 79.11 38.32 79.2733 38.76 79.6C39.2067 79.9267 39.43 80.4133 39.43 81.06C39.43 81.54 39.3067 81.93 39.06 82.23C38.8133 82.53 38.44 82.7567 37.94 82.91L39.8 86H38.67L37.02 83.08ZM36.91 82.35C37.41 82.35 37.7867 82.25 38.04 82.05C38.2933 81.8433 38.42 81.5133 38.42 81.06C38.42 80.6333 38.29 80.3267 38.03 80.14C37.7767 79.9467 37.3667 79.85 36.8 79.85H35.95V82.35H36.91ZM44.7847 79.11L44.6747 79.87H42.0047V82.12H44.3247V82.88H42.0047V85.24H44.8647V86H41.0547V79.11H44.7847ZM50.0763 86L49.5563 84.27H46.9463L46.4263 86H45.4663L47.6763 79.11H48.8763L51.0763 86H50.0763ZM47.1763 83.5H49.3263L48.2563 79.9L47.1763 83.5ZM54.451 78.99C54.8643 78.99 55.211 79.0433 55.491 79.15C55.7777 79.2567 56.0677 79.43 56.361 79.67L55.841 80.28C55.421 79.94 54.9777 79.77 54.511 79.77C53.9377 79.77 53.4743 79.99 53.121 80.43C52.7743 80.87 52.601 81.5767 52.601 82.55C52.601 83.4967 52.7743 84.1967 53.121 84.65C53.4677 85.0967 53.9277 85.32 54.501 85.32C54.7943 85.32 55.051 85.27 55.271 85.17C55.491 85.07 55.7243 84.93 55.971 84.75L56.441 85.35C56.2277 85.57 55.9543 85.7533 55.621 85.9C55.2877 86.0467 54.9043 86.12 54.471 86.12C53.911 86.12 53.411 85.9833 52.971 85.71C52.5377 85.43 52.1977 85.0233 51.951 84.49C51.711 83.95 51.591 83.3033 51.591 82.55C51.591 81.7967 51.7177 81.1533 51.971 80.62C52.2243 80.08 52.5677 79.6733 53.001 79.4C53.4343 79.1267 53.9177 78.99 54.451 78.99ZM61.6091 79.11L61.5091 79.92H59.5991V86H58.6491V79.92H56.6891V79.11H61.6091Z" fill="#43267E"/>
<path d="M48 57.5488C35.1 57.5488 25 53.1488 25 47.5488C25 41.9488 35.1 37.5488 48 37.5488C60.9 37.5488 71 41.9488 71 47.5488C71 53.1488 60.9 57.5488 48 57.5488ZM48 39.5488C35.4 39.5488 27 43.6488 27 47.5488C27 51.4488 35.4 55.5488 48 55.5488C60.6 55.5488 69 51.4488 69 47.5488C69 43.6488 60.6 39.5488 48 39.5488Z" fill="url(#paint1_linear_131_21)"/>
<path d="M39.1001 68.1489C38.1001 68.1489 37.3001 67.9489 36.5001 67.4489C31.6001 64.6489 32.9001 53.7489 39.3001 42.5489C42.3001 37.3489 46.0001 32.9489 49.6001 30.1489C53.5001 27.1489 57.0001 26.2489 59.4001 27.6489C61.9001 29.0489 62.8001 32.5489 62.2001 37.4489C61.6001 42.0489 59.6001 47.4489 56.6001 52.6489C53.6001 57.8489 49.9001 62.2489 46.3001 65.0489C43.7001 67.0489 41.2001 68.1489 39.1001 68.1489ZM56.9001 28.9489C55.3001 28.9489 53.2001 29.8489 50.9001 31.6489C47.5001 34.3489 44.0001 38.5489 41.1001 43.5489C34.8001 54.4489 34.2001 63.8489 37.5001 65.7489C39.2001 66.7489 42.0001 65.8489 45.1001 63.4489C48.5001 60.7489 52.0001 56.5489 54.9001 51.5489C57.8001 46.5489 59.7001 41.4489 60.3001 37.1489C60.8001 33.1489 60.2001 30.3489 58.5001 29.3489C58.0001 29.1489 57.5001 28.9489 56.9001 28.9489Z" fill="url(#paint2_linear_131_21)"/>
<path d="M57.0001 68.1489C52.0001 68.1489 44.8001 62.0489 39.4001 52.5489C32.9001 41.3489 31.6001 30.4489 36.5001 27.6489C41.4001 24.8489 50.2001 31.3489 56.7001 42.5489C59.7001 47.7489 61.7001 53.1489 62.3001 57.7489C63.0001 62.6489 62.0001 66.0489 59.5001 67.5489C58.7001 67.9489 57.9001 68.1489 57.0001 68.1489ZM37.5001 29.3489C34.2001 31.2489 34.8001 40.6489 41.1001 51.5489C47.4001 62.4489 55.2001 67.6489 58.5001 65.7489C60.2001 64.7489 60.8001 61.9489 60.3001 57.9489C59.7001 53.6489 57.8001 48.5489 54.9001 43.5489C48.6001 32.6489 40.8001 27.4489 37.5001 29.3489Z" fill="url(#paint3_linear_131_21)"/>
<path d="M48 51.5488C50.2091 51.5488 52 49.758 52 47.5488C52 45.3397 50.2091 43.5488 48 43.5488C45.7909 43.5488 44 45.3397 44 47.5488C44 49.758 45.7909 51.5488 48 51.5488Z" fill="url(#paint4_linear_131_21)"/>
<defs>
<linearGradient id="paint0_linear_131_21" x1="48" y1="0" x2="48" y2="96" gradientUnits="userSpaceOnUse">
<stop stop-color="#FE00B7" stop-opacity="0.3"/>
<stop offset="1" stop-color="#5200FF" stop-opacity="0.7"/>
</linearGradient>
<linearGradient id="paint1_linear_131_21" x1="22.5" y1="35.6047" x2="38.8948" y2="70.1116" gradientUnits="userSpaceOnUse">
<stop stop-color="#CC3DA4"/>
<stop offset="0.0001" stop-color="#BA52C0"/>
<stop offset="1" stop-color="#9180FF"/>
</linearGradient>
<linearGradient id="paint2_linear_131_21" x1="31.9557" y1="23.0044" x2="71.5083" y2="48.3882" gradientUnits="userSpaceOnUse">
<stop stop-color="#CC3DA4"/>
<stop offset="0.0001" stop-color="#BA52C0"/>
<stop offset="1" stop-color="#9180FF"/>
</linearGradient>
<linearGradient id="paint3_linear_131_21" x1="31.9554" y1="23" x2="71.5851" y2="48.5471" gradientUnits="userSpaceOnUse">
<stop stop-color="#CC3DA4"/>
<stop offset="0.0001" stop-color="#BA52C0"/>
<stop offset="1" stop-color="#9180FF"/>
</linearGradient>
<linearGradient id="paint4_linear_131_21" x1="43.5652" y1="42.7712" x2="51.9913" y2="50.4819" gradientUnits="userSpaceOnUse">
<stop stop-color="#CC3DA4"/>
<stop offset="0.0001" stop-color="#BA52C0"/>
<stop offset="1" stop-color="#9180FF"/>
</linearGradient>
</defs>
</svg>
