<svg width="96" height="96" viewBox="0 0 96 96" fill="none" xmlns="http://www.w3.org/2000/svg">
<rect width="96" height="96" rx="5" fill="url(#paint0_linear_131_26)" fill-opacity="0.4"/>
<path d="M36.02 83.08H34.95V86H34V79.11H35.81C36.67 79.11 37.32 79.2733 37.76 79.6C38.2067 79.9267 38.43 80.4133 38.43 81.06C38.43 81.54 38.3067 81.93 38.06 82.23C37.8133 82.53 37.44 82.7567 36.94 82.91L38.8 86H37.67L36.02 83.08ZM35.91 82.35C36.41 82.35 36.7867 82.25 37.04 82.05C37.2933 81.8433 37.42 81.5133 37.42 81.06C37.42 80.6333 37.29 80.3267 37.03 80.14C36.7767 79.9467 36.3667 79.85 35.8 79.85H34.95V82.35H35.91ZM43.7847 79.11L43.6747 79.87H41.0047V82.12H43.3247V82.88H41.0047V85.24H43.8647V86H40.0547V79.11H43.7847ZM46.8463 79.11C47.8863 79.11 48.7196 79.3533 49.3463 79.84C49.9796 80.32 50.2963 81.2133 50.2963 82.52C50.2963 83.7933 49.9796 84.6933 49.3463 85.22C48.7196 85.74 47.9563 86 47.0563 86H45.4063V79.11H46.8463ZM46.3563 79.87V85.25H47.1263C47.7663 85.25 48.2863 85.0533 48.6863 84.66C49.0863 84.2667 49.2863 83.5533 49.2863 82.52C49.2863 81.7933 49.1829 81.2367 48.9763 80.85C48.7696 80.4567 48.5063 80.1967 48.1863 80.07C47.8663 79.9367 47.4896 79.87 47.0563 79.87H46.3563ZM56.5618 83.79C56.5618 84.25 56.4651 84.6567 56.2718 85.01C56.0851 85.3567 55.8085 85.63 55.4418 85.83C55.0818 86.0233 54.6485 86.12 54.1418 86.12C53.3751 86.12 52.7818 85.91 52.3618 85.49C51.9485 85.0633 51.7418 84.4967 51.7418 83.79V79.11H52.6918V83.72C52.6918 84.2533 52.8118 84.6533 53.0518 84.92C53.2918 85.1867 53.6551 85.32 54.1418 85.32C54.6351 85.32 55.0018 85.19 55.2418 84.93C55.4818 84.6633 55.6018 84.26 55.6018 83.72V79.11H56.5618V83.79ZM60.6738 82.28L62.7738 86H61.6938L60.1038 82.95L58.4938 86H57.4738L59.5438 82.33L57.6538 79.11H58.7338L60.1238 81.7L61.5238 79.11H62.5438L60.6738 82.28Z" fill="#43267E"/>
<path d="M47.0267 21C39.8587 21 34.0267 29.2923 34.0267 39.4863C34.0267 44.7525 35.5917 49.4946 38.0873 52.8594C37.9932 53.3645 38.0116 53.8841 38.1409 54.3813C38.2703 54.8785 38.5076 55.3412 38.8358 55.7364C39.1641 56.1316 39.5754 56.4497 40.0405 56.6681C40.5055 56.8865 41.013 56.9998 41.5267 57C42.455 57 43.3452 56.6312 44.0016 55.9749C44.658 55.3185 45.0267 54.4283 45.0267 53.5C45.0267 52.5717 44.658 51.6815 44.0016 51.0251C43.3452 50.3688 42.455 50 41.5267 50C41.3362 50.0014 41.1461 50.0184 40.9584 50.0508C39.1703 47.3872 38.0267 43.6115 38.0267 39.4863C38.0267 31.6333 42.1487 25 47.0267 25C51.1457 25 54.7159 29.7375 55.7299 35.9375C57.1519 36.3455 58.5684 36.8975 59.9564 37.5645C59.2784 28.2705 53.7387 21 47.0267 21ZM45.5267 36C44.5985 36 43.7082 36.3687 43.0519 37.0251C42.3955 37.6815 42.0267 38.5717 42.0267 39.5C42.0267 40.4283 42.3955 41.3185 43.0519 41.9749C43.7082 42.6313 44.5985 43 45.5267 43C46.181 42.9997 46.8221 42.8159 47.3772 42.4697C47.9323 42.1234 48.3793 41.6285 48.6674 41.041C51.9171 40.8375 55.6728 41.8401 59.14 43.918C66 48.031 69.7305 55.223 67.2845 59.623C66.4805 61.069 65.0321 62.109 63.0951 62.627C60.3061 63.373 56.886 62.9937 53.517 61.6387C52.448 62.6327 51.2726 63.5658 49.9896 64.4238C53.3176 66.1048 56.8372 66.9961 60.0892 66.9961C61.4992 66.9961 62.8603 66.8302 64.1303 66.4902C67.1373 65.6852 69.4376 63.9824 70.7806 61.5664C74.3646 55.1174 70.1547 45.8583 61.1967 40.4883C56.9342 37.9319 52.2123 36.7538 48.0619 37.0938C47.7356 36.7491 47.3425 36.4744 46.9067 36.2863C46.4709 36.0983 46.0014 36.0009 45.5267 36ZM32.1869 42.3242C25.1059 47.7952 22.0688 55.7994 25.2748 61.5664C26.6178 63.9824 28.9182 65.6852 31.9252 66.4902C33.1962 66.8302 34.5542 66.9961 35.9662 66.9961C39.7662 66.9961 43.9368 65.7897 47.7338 63.5137C51.9816 60.967 55.1225 57.5437 56.9037 53.9629C58.6548 53.7721 60.0267 52.301 60.0267 50.5C60.0267 48.57 58.4567 47 56.5267 47C54.5967 47 53.0267 48.57 53.0267 50.5C53.0267 51.0402 53.1588 51.5466 53.3783 52.0039C51.9344 54.9787 49.2402 57.9454 45.6771 60.082C41.3811 62.658 36.6264 63.61 32.9584 62.627C31.0224 62.109 29.5749 61.069 28.7709 59.623C26.8369 56.143 28.773 50.9235 33.056 46.8555C32.645 45.4155 32.3509 43.8992 32.1869 42.3242Z" fill="url(#paint1_linear_131_26)"/>
<defs>
<linearGradient id="paint0_linear_131_26" x1="48" y1="0" x2="48" y2="96" gradientUnits="userSpaceOnUse">
<stop stop-color="#FE00B7" stop-opacity="0.3"/>
<stop offset="1" stop-color="#5200FF" stop-opacity="0.7"/>
</linearGradient>
<linearGradient id="paint1_linear_131_26" x1="21" y1="17.5" x2="66" y2="62.5" gradientUnits="userSpaceOnUse">
<stop offset="0.000203083" stop-color="#FF7BDA"/>
<stop offset="1" stop-color="#9180FF"/>
</linearGradient>
</defs>
</svg>
