<svg width="96" height="96" viewBox="0 0 96 96" fill="none" xmlns="http://www.w3.org/2000/svg">
<rect x="1" y="1" width="94" height="94" rx="4" fill="#CCCCCC" stroke="#B8B8B8" stroke-width="2"/>
<path d="M39.7 78.99C40.16 78.99 40.5533 79.0567 40.88 79.19C41.2067 79.3167 41.5233 79.5167 41.83 79.79L41.31 80.37C41.05 80.1633 40.7933 80.0133 40.54 79.92C40.2933 79.82 40.0267 79.77 39.74 79.77C39.38 79.77 39.0833 79.8533 38.85 80.02C38.6167 80.1867 38.5 80.43 38.5 80.75C38.5 80.95 38.54 81.12 38.62 81.26C38.7 81.3933 38.8467 81.5167 39.06 81.63C39.28 81.7433 39.5967 81.8633 40.01 81.99C40.4433 82.1233 40.8033 82.2667 41.09 82.42C41.3767 82.5733 41.6067 82.7867 41.78 83.06C41.96 83.3267 42.05 83.6667 42.05 84.08C42.05 84.48 41.95 84.8333 41.75 85.14C41.5567 85.4467 41.2733 85.6867 40.9 85.86C40.5333 86.0333 40.0967 86.12 39.59 86.12C38.6367 86.12 37.8567 85.8233 37.25 85.23L37.77 84.65C38.05 84.8767 38.3333 85.05 38.62 85.17C38.9067 85.2833 39.2267 85.34 39.58 85.34C40.0067 85.34 40.36 85.2367 40.64 85.03C40.92 84.8167 41.06 84.51 41.06 84.11C41.06 83.8833 41.0167 83.6967 40.93 83.55C40.8433 83.3967 40.6933 83.26 40.48 83.14C40.2733 83.02 39.97 82.9 39.57 82.78C38.8633 82.5667 38.3467 82.31 38.02 82.01C37.6933 81.71 37.53 81.3033 37.53 80.79C37.53 80.4433 37.62 80.1333 37.8 79.86C37.9867 79.5867 38.2433 79.3733 38.57 79.22C38.9033 79.0667 39.28 78.99 39.7 78.99ZM47.0704 86L46.5504 84.27H43.9404L43.4204 86H42.4604L44.6704 79.11H45.8704L48.0704 86H47.0704ZM44.1704 83.5H46.3204L45.2504 79.9L44.1704 83.5ZM50.8328 78.99C51.2928 78.99 51.6861 79.0567 52.0128 79.19C52.3395 79.3167 52.6561 79.5167 52.9628 79.79L52.4428 80.37C52.1828 80.1633 51.9261 80.0133 51.6728 79.92C51.4261 79.82 51.1595 79.77 50.8728 79.77C50.5128 79.77 50.2161 79.8533 49.9828 80.02C49.7495 80.1867 49.6328 80.43 49.6328 80.75C49.6328 80.95 49.6728 81.12 49.7528 81.26C49.8328 81.3933 49.9795 81.5167 50.1928 81.63C50.4128 81.7433 50.7295 81.8633 51.1428 81.99C51.5761 82.1233 51.9361 82.2667 52.2228 82.42C52.5095 82.5733 52.7395 82.7867 52.9128 83.06C53.0928 83.3267 53.1828 83.6667 53.1828 84.08C53.1828 84.48 53.0828 84.8333 52.8828 85.14C52.6895 85.4467 52.4061 85.6867 52.0328 85.86C51.6661 86.0333 51.2295 86.12 50.7228 86.12C49.7695 86.12 48.9895 85.8233 48.3828 85.23L48.9028 84.65C49.1828 84.8767 49.4661 85.05 49.7528 85.17C50.0395 85.2833 50.3595 85.34 50.7128 85.34C51.1395 85.34 51.4928 85.2367 51.7728 85.03C52.0528 84.8167 52.1928 84.51 52.1928 84.11C52.1928 83.8833 52.1495 83.6967 52.0628 83.55C51.9761 83.3967 51.8261 83.26 51.6128 83.14C51.4061 83.02 51.1028 82.9 50.7028 82.78C49.9961 82.5667 49.4795 82.31 49.1528 82.01C48.8261 81.71 48.6628 81.3033 48.6628 80.79C48.6628 80.4433 48.7528 80.1333 48.9328 79.86C49.1195 79.5867 49.3761 79.3733 49.7028 79.22C50.0361 79.0667 50.4128 78.99 50.8328 78.99ZM56.1648 78.99C56.6248 78.99 57.0182 79.0567 57.3448 79.19C57.6715 79.3167 57.9882 79.5167 58.2948 79.79L57.7748 80.37C57.5148 80.1633 57.2582 80.0133 57.0048 79.92C56.7582 79.82 56.4915 79.77 56.2048 79.77C55.8448 79.77 55.5482 79.8533 55.3148 80.02C55.0815 80.1867 54.9648 80.43 54.9648 80.75C54.9648 80.95 55.0048 81.12 55.0848 81.26C55.1648 81.3933 55.3115 81.5167 55.5248 81.63C55.7448 81.7433 56.0615 81.8633 56.4748 81.99C56.9082 82.1233 57.2682 82.2667 57.5548 82.42C57.8415 82.5733 58.0715 82.7867 58.2448 83.06C58.4248 83.3267 58.5148 83.6667 58.5148 84.08C58.5148 84.48 58.4148 84.8333 58.2148 85.14C58.0215 85.4467 57.7382 85.6867 57.3648 85.86C56.9982 86.0333 56.5615 86.12 56.0548 86.12C55.1015 86.12 54.3215 85.8233 53.7148 85.23L54.2348 84.65C54.5148 84.8767 54.7982 85.05 55.0848 85.17C55.3715 85.2833 55.6915 85.34 56.0448 85.34C56.4715 85.34 56.8248 85.2367 57.1048 85.03C57.3848 84.8167 57.5248 84.51 57.5248 84.11C57.5248 83.8833 57.4815 83.6967 57.3948 83.55C57.3082 83.3967 57.1582 83.26 56.9448 83.14C56.7382 83.02 56.4348 82.9 56.0348 82.78C55.3282 82.5667 54.8115 82.31 54.4848 82.01C54.1582 81.71 53.9948 81.3033 53.9948 80.79C53.9948 80.4433 54.0848 80.1333 54.2648 79.86C54.4515 79.5867 54.7082 79.3733 55.0348 79.22C55.3682 79.0667 55.7448 78.99 56.1648 78.99Z" fill="#525252"/>
<path d="M66.031 48.542C64.284 48.551 62.77 48.971 61.501 49.596C61.037 48.67 60.567 47.855 60.488 47.249C60.396 46.542 60.289 46.12 60.4 45.277C60.511 44.434 60.999 43.241 60.991 43.152C60.984 43.063 60.882 42.634 59.874 42.626C58.866 42.619 58.004 42.82 57.902 43.086C57.8 43.352 57.606 43.951 57.486 44.576C57.309 45.49 55.474 48.75 54.431 50.455C54.09 49.789 53.8 49.203 53.74 48.739C53.648 48.032 53.541 47.61 53.652 46.767C53.763 45.924 54.251 44.731 54.243 44.642C54.236 44.553 54.134 44.124 53.126 44.116C52.118 44.109 51.256 44.31 51.154 44.576C51.052 44.842 50.944 45.464 50.738 46.066C50.531 46.668 48.091 52.105 47.452 53.514C47.126 54.232 46.843 54.809 46.643 55.203L46.642 55.201C46.642 55.201 46.63 55.227 46.608 55.272C46.437 55.607 46.335 55.793 46.335 55.793C46.335 55.793 46.336 55.796 46.338 55.8C46.202 56.046 46.057 56.275 45.985 56.275C45.935 56.275 45.834 55.619 46.007 54.72C46.37 52.834 47.242 49.892 47.234 49.791C47.23 49.739 47.396 49.227 46.664 48.958C45.953 48.698 45.699 49.132 45.634 49.133C45.571 49.134 45.524 49.286 45.524 49.286C45.524 49.286 46.317 45.978 44.012 45.978C42.572 45.978 40.576 47.554 39.592 48.982C38.972 49.32 37.644 50.045 36.235 50.819C35.694 51.116 35.142 51.42 34.618 51.709C34.582 51.67 34.547 51.63 34.51 51.591C31.716 48.61 26.552 46.502 26.771 42.495C26.851 41.038 27.357 37.202 36.695 32.549C44.344 28.737 50.468 29.786 51.526 32.111C53.038 35.432 48.253 41.605 40.31 42.495C37.283 42.834 35.69 41.661 35.293 41.224C34.876 40.764 34.814 40.743 34.658 40.83C34.404 40.971 34.565 41.377 34.658 41.619C34.895 42.236 35.868 43.331 37.528 43.875C38.988 44.354 42.541 44.617 46.839 42.955C51.652 41.093 55.41 35.914 54.307 31.585C53.184 27.182 45.884 25.735 38.975 28.189C34.863 29.65 30.412 31.943 27.211 34.936C23.405 38.496 22.799 41.594 23.049 42.888C23.938 47.488 30.277 50.483 32.816 52.703C32.691 52.772 32.573 52.837 32.466 52.896C31.193 53.526 26.361 56.055 25.152 58.727C23.781 61.758 25.37 63.933 26.423 64.226C29.683 65.133 33.029 63.501 34.827 60.819C36.625 58.138 36.405 54.647 35.58 53.053C35.57 53.033 35.558 53.014 35.548 52.994C35.877 52.799 36.212 52.602 36.544 52.407C37.192 52.027 37.828 51.672 38.38 51.371C38.071 52.217 37.845 53.231 37.727 54.696C37.589 56.417 38.294 58.641 39.217 59.516C39.623 59.901 40.112 59.91 40.422 59.91C41.496 59.91 41.986 59.017 42.525 57.96C43.187 56.664 43.774 55.156 43.774 55.156C43.774 55.156 43.037 59.231 45.045 59.231C45.776 59.231 46.512 58.282 46.84 57.799C46.841 57.804 46.841 57.807 46.841 57.807C46.841 57.807 46.86 57.776 46.897 57.712C46.973 57.596 47.016 57.522 47.016 57.522C47.016 57.522 47.018 57.514 47.02 57.501C47.314 56.991 47.966 55.827 48.944 53.907C50.207 51.427 51.419 48.321 51.419 48.321C51.419 48.321 51.532 49.081 51.901 50.336C52.118 51.075 52.58 51.892 52.944 52.675C52.651 53.082 52.471 53.315 52.471 53.315C52.471 53.315 52.473 53.319 52.476 53.327C52.242 53.638 51.979 53.973 51.704 54.301C50.707 55.489 49.519 56.845 49.36 57.237C49.173 57.698 49.217 58.038 49.579 58.31C49.843 58.509 50.314 58.54 50.806 58.507C51.702 58.447 52.333 58.224 52.644 58.089C53.129 57.918 53.694 57.648 54.224 57.258C55.202 56.539 55.792 55.51 55.736 54.147C55.705 53.396 55.465 52.652 55.162 51.949C55.251 51.821 55.34 51.693 55.429 51.562C56.971 49.307 58.167 46.83 58.167 46.83C58.167 46.83 58.28 47.59 58.649 48.845C58.836 49.481 59.205 50.174 59.536 50.854C58.086 52.032 57.187 53.401 56.874 54.299C56.297 55.96 56.749 56.713 57.597 56.884C57.981 56.962 58.524 56.786 58.932 56.613C59.44 56.445 60.05 56.164 60.62 55.745C61.598 55.026 62.539 54.019 62.482 52.656C62.456 52.036 62.288 51.42 62.06 50.828C63.289 50.316 64.881 50.031 66.908 50.268C71.257 50.776 72.11 53.491 71.947 54.627C71.784 55.764 70.872 56.388 70.567 56.577C70.262 56.766 70.169 56.831 70.195 56.971C70.232 57.175 70.373 57.167 70.633 57.123C70.991 57.063 72.916 56.199 72.999 54.101C73.103 51.443 70.551 48.518 66.031 48.542ZM32.513 59.842C31.073 61.413 29.06 62.007 28.197 61.507C27.265 60.967 27.634 58.653 29.402 56.986C30.479 55.97 31.87 55.034 32.793 54.457C33.003 54.331 33.311 54.145 33.686 53.92C33.748 53.885 33.783 53.865 33.783 53.865L33.782 53.863C33.854 53.82 33.929 53.775 34.005 53.729C34.648 56.103 34.025 58.193 32.513 59.842ZM43.006 52.708C42.504 53.931 41.454 57.06 40.815 56.892C40.266 56.748 39.932 54.369 40.705 52.029C41.094 50.851 41.925 49.443 42.414 48.896C43.2 48.017 44.066 47.729 44.276 48.086C44.545 48.54 43.321 51.941 43.006 52.708ZM51.676 56.845C51.463 56.956 51.268 57.026 51.178 56.972C51.111 56.932 51.266 56.786 51.266 56.786C51.266 56.786 52.35 55.619 52.778 55.088C53.026 54.779 53.315 54.412 53.628 54.002C53.631 54.043 53.632 54.084 53.632 54.124C53.628 55.522 52.278 56.465 51.676 56.845ZM58.355 55.322C58.196 55.209 58.223 54.844 58.744 53.708C58.949 53.262 59.416 52.51 60.229 51.792C60.323 52.087 60.381 52.37 60.379 52.634C60.368 54.393 59.113 55.05 58.355 55.322Z" fill="#7A7A7A"/>
</svg>
