<svg width="96" height="96" viewBox="0 0 96 96" fill="none" xmlns="http://www.w3.org/2000/svg">
<rect x="1" y="1" width="94" height="94" rx="4" fill="#CCCCCC" stroke="#B8B8B8" stroke-width="2"/>
<path d="M31.07 79.11L30.97 79.92H29.06V86H28.11V79.92H26.15V79.11H31.07ZM33.8256 86.03C33.619 86.6433 33.329 87.1267 32.9556 87.48C32.589 87.84 32.0623 88.0567 31.3756 88.13L31.2756 87.41C31.6223 87.35 31.899 87.2633 32.1056 87.15C32.3123 87.0367 32.4756 86.89 32.5956 86.71C32.7223 86.5367 32.839 86.3 32.9456 86H32.6356L30.8656 80.73H31.8456L33.2556 85.33L34.6356 80.73H35.5856L33.8256 86.03ZM39.0575 80.61C39.7308 80.61 40.2242 80.85 40.5375 81.33C40.8508 81.81 41.0075 82.4867 41.0075 83.36C41.0075 84.1867 40.8275 84.8533 40.4675 85.36C40.1075 85.8667 39.5975 86.12 38.9375 86.12C38.3508 86.12 37.8908 85.92 37.5575 85.52V88.02L36.6375 88.13V80.73H37.4275L37.4975 81.44C37.6908 81.1733 37.9242 80.97 38.1975 80.83C38.4708 80.6833 38.7575 80.61 39.0575 80.61ZM38.7175 85.37C39.5842 85.37 40.0175 84.7 40.0175 83.36C40.0175 82.0133 39.6208 81.34 38.8275 81.34C38.5675 81.34 38.3308 81.4167 38.1175 81.57C37.9042 81.7233 37.7175 81.92 37.5575 82.16V84.73C37.6908 84.9367 37.8575 85.0967 38.0575 85.21C38.2575 85.3167 38.4775 85.37 38.7175 85.37ZM46.555 83.21C46.555 83.3633 46.5483 83.52 46.535 83.68H43.175C43.215 84.26 43.3617 84.6867 43.615 84.96C43.8683 85.2333 44.195 85.37 44.595 85.37C44.8483 85.37 45.0817 85.3333 45.295 85.26C45.5083 85.1867 45.7317 85.07 45.965 84.91L46.365 85.46C45.805 85.9 45.1917 86.12 44.525 86.12C43.7917 86.12 43.2183 85.88 42.805 85.4C42.3983 84.92 42.195 84.26 42.195 83.42C42.195 82.8733 42.2817 82.39 42.455 81.97C42.635 81.5433 42.8883 81.21 43.215 80.97C43.5483 80.73 43.9383 80.61 44.385 80.61C45.085 80.61 45.6217 80.84 45.995 81.3C46.3683 81.76 46.555 82.3967 46.555 83.21ZM45.645 82.94C45.645 82.42 45.5417 82.0233 45.335 81.75C45.1283 81.4767 44.8183 81.34 44.405 81.34C43.6517 81.34 43.2417 81.8933 43.175 83H45.645V82.94ZM49.7742 78.99C50.2342 78.99 50.6276 79.0567 50.9542 79.19C51.2809 79.3167 51.5976 79.5167 51.9042 79.79L51.3842 80.37C51.1242 80.1633 50.8676 80.0133 50.6142 79.92C50.3676 79.82 50.1009 79.77 49.8142 79.77C49.4542 79.77 49.1576 79.8533 48.9242 80.02C48.6909 80.1867 48.5742 80.43 48.5742 80.75C48.5742 80.95 48.6142 81.12 48.6942 81.26C48.7742 81.3933 48.9209 81.5167 49.1342 81.63C49.3542 81.7433 49.6709 81.8633 50.0842 81.99C50.5176 82.1233 50.8776 82.2667 51.1642 82.42C51.4509 82.5733 51.6809 82.7867 51.8542 83.06C52.0342 83.3267 52.1242 83.6667 52.1242 84.08C52.1242 84.48 52.0242 84.8333 51.8242 85.14C51.6309 85.4467 51.3476 85.6867 50.9742 85.86C50.6076 86.0333 50.1709 86.12 49.6642 86.12C48.7109 86.12 47.9309 85.8233 47.3242 85.23L47.8442 84.65C48.1242 84.8767 48.4076 85.05 48.6942 85.17C48.9809 85.2833 49.3009 85.34 49.6542 85.34C50.0809 85.34 50.4342 85.2367 50.7142 85.03C50.9942 84.8167 51.1342 84.51 51.1342 84.11C51.1342 83.8833 51.0909 83.6967 51.0042 83.55C50.9176 83.3967 50.7676 83.26 50.5542 83.14C50.3476 83.02 50.0442 82.9 49.6442 82.78C48.9376 82.5667 48.4209 82.31 48.0942 82.01C47.7676 81.71 47.6042 81.3033 47.6042 80.79C47.6042 80.4433 47.6942 80.1333 47.8742 79.86C48.0609 79.5867 48.3176 79.3733 48.6442 79.22C48.9776 79.0667 49.3542 78.99 49.7742 78.99ZM55.3934 80.61C55.7068 80.61 55.9934 80.6567 56.2534 80.75C56.5134 80.8367 56.7634 80.98 57.0034 81.18L56.5634 81.76C56.3768 81.6267 56.1934 81.53 56.0134 81.47C55.8401 81.4033 55.6468 81.37 55.4334 81.37C55.0068 81.37 54.6734 81.54 54.4334 81.88C54.2001 82.22 54.0834 82.7233 54.0834 83.39C54.0834 84.0567 54.2001 84.55 54.4334 84.87C54.6668 85.1833 55.0001 85.34 55.4334 85.34C55.6401 85.34 55.8301 85.31 56.0034 85.25C56.1768 85.1833 56.3701 85.08 56.5834 84.94L57.0034 85.54C56.5234 85.9267 55.9868 86.12 55.3934 86.12C54.6801 86.12 54.1168 85.88 53.7034 85.4C53.2968 84.92 53.0934 84.2567 53.0934 83.41C53.0934 82.85 53.1868 82.36 53.3734 81.94C53.5601 81.52 53.8234 81.1933 54.1634 80.96C54.5101 80.7267 54.9201 80.61 55.3934 80.61ZM60.5388 80.61C60.7255 80.61 60.8988 80.63 61.0588 80.67L60.8888 81.57C60.7288 81.53 60.5755 81.51 60.4288 81.51C60.1022 81.51 59.8388 81.63 59.6388 81.87C59.4388 82.11 59.2822 82.4833 59.1688 82.99V86H58.2488V80.73H59.0388L59.1288 81.8C59.2688 81.4067 59.4588 81.11 59.6988 80.91C59.9388 80.71 60.2188 80.61 60.5388 80.61ZM63.0263 80.73V86H62.1063V80.73H63.0263ZM62.5563 78.2C62.7496 78.2 62.9063 78.26 63.0263 78.38C63.1463 78.5 63.2063 78.65 63.2063 78.83C63.2063 79.01 63.1463 79.16 63.0263 79.28C62.9063 79.3933 62.7496 79.45 62.5563 79.45C62.3696 79.45 62.2163 79.3933 62.0963 79.28C61.9763 79.16 61.9163 79.01 61.9163 78.83C61.9163 78.65 61.9763 78.5 62.0963 78.38C62.2163 78.26 62.3696 78.2 62.5563 78.2ZM67.3485 80.61C68.0218 80.61 68.5152 80.85 68.8285 81.33C69.1418 81.81 69.2985 82.4867 69.2985 83.36C69.2985 84.1867 69.1185 84.8533 68.7585 85.36C68.3985 85.8667 67.8885 86.12 67.2285 86.12C66.6418 86.12 66.1818 85.92 65.8485 85.52V88.02L64.9285 88.13V80.73H65.7185L65.7885 81.44C65.9818 81.1733 66.2152 80.97 66.4885 80.83C66.7618 80.6833 67.0485 80.61 67.3485 80.61ZM67.0085 85.37C67.8752 85.37 68.3085 84.7 68.3085 83.36C68.3085 82.0133 67.9118 81.34 67.1185 81.34C66.8585 81.34 66.6218 81.4167 66.4085 81.57C66.1952 81.7233 66.0085 81.92 65.8485 82.16V84.73C65.9818 84.9367 66.1485 85.0967 66.3485 85.21C66.5485 85.3167 66.7685 85.37 67.0085 85.37ZM73.526 85.76C73.1793 86 72.786 86.12 72.346 86.12C71.8993 86.12 71.5493 85.9933 71.296 85.74C71.0493 85.48 70.926 85.1067 70.926 84.62V81.44H70.006V80.73H70.926V79.54L71.846 79.43V80.73H73.096L72.996 81.44H71.846V84.58C71.846 84.8533 71.8927 85.0533 71.986 85.18C72.086 85.3 72.2493 85.36 72.476 85.36C72.6827 85.36 72.916 85.29 73.176 85.15L73.526 85.76Z" fill="#525252"/>
<path d="M70.8571 18H25.1429C24.5109 18 24 18.512 24 19.1429V64.8571C24 65.488 24.5109 66 25.1429 66H70.8571C71.4891 66 72 65.488 72 64.8571V19.1429C72 18.512 71.4891 18 70.8571 18ZM52.5714 43.6514H46.8571V61.4286H42.2857V43.6514H36.5714V39.7143H52.5714V43.6514ZM53.8526 60.4137V55.6617C53.8526 55.6617 56.448 57.6183 59.5623 57.6183C62.6766 57.6183 62.5566 55.5817 62.5566 55.3029C62.5566 52.3474 53.7326 52.3474 53.7326 45.8C53.7326 36.896 66.5897 40.4091 66.5897 40.4091L66.4297 44.6423C66.4297 44.6423 64.2731 43.2046 61.8377 43.2046C59.4023 43.2046 58.5234 44.3623 58.5234 45.6C58.5234 48.7943 67.4274 48.4754 67.4274 54.904C67.4286 64.8057 53.8526 60.4137 53.8526 60.4137Z" fill="#7A7A7A"/>
</svg>
