<svg width="96" height="96" viewBox="0 0 96 96" fill="none" xmlns="http://www.w3.org/2000/svg">
<rect width="96" height="96" rx="5" fill="url(#paint0_linear_131_40)" fill-opacity="0.4"/>
<path d="M28.01 78.11L26.61 85H25.39L24.12 79.23L22.84 85H21.65L20.25 78.11H21.18L22.29 84.17L23.62 78.11H24.63L25.99 84.17L27.14 78.11H28.01ZM31.7217 77.99C32.3017 77.99 32.8084 78.13 33.2417 78.41C33.6817 78.6833 34.0217 79.0867 34.2617 79.62C34.5084 80.1533 34.6317 80.8 34.6317 81.56C34.6317 82.3067 34.5084 82.9467 34.2617 83.48C34.0217 84.0133 33.6817 84.42 33.2417 84.7C32.8084 84.98 32.3017 85.12 31.7217 85.12C31.1417 85.12 30.6317 84.9833 30.1917 84.71C29.7584 84.4367 29.4184 84.0333 29.1717 83.5C28.9317 82.9667 28.8117 82.3233 28.8117 81.57C28.8117 80.83 28.9317 80.19 29.1717 79.65C29.4184 79.11 29.7617 78.7 30.2017 78.42C30.6417 78.1333 31.1484 77.99 31.7217 77.99ZM31.7217 78.77C31.1217 78.77 30.6551 78.9967 30.3217 79.45C29.9884 79.9033 29.8217 80.61 29.8217 81.57C29.8217 82.5233 29.9884 83.2233 30.3217 83.67C30.6617 84.1167 31.1284 84.34 31.7217 84.34C32.9884 84.34 33.6217 83.4133 33.6217 81.56C33.6217 79.7 32.9884 78.77 31.7217 78.77ZM38.2055 82.08H37.1355V85H36.1855V78.11H37.9955C38.8555 78.11 39.5055 78.2733 39.9455 78.6C40.3922 78.9267 40.6155 79.4133 40.6155 80.06C40.6155 80.54 40.4922 80.93 40.2455 81.23C39.9989 81.53 39.6255 81.7567 39.1255 81.91L40.9855 85H39.8555L38.2055 82.08ZM38.0955 81.35C38.5955 81.35 38.9722 81.25 39.2255 81.05C39.4789 80.8433 39.6055 80.5133 39.6055 80.06C39.6055 79.6333 39.4755 79.3267 39.2155 79.14C38.9622 78.9467 38.5522 78.85 37.9855 78.85H37.1355V81.35H38.0955ZM43.6802 78.11C44.7202 78.11 45.5536 78.3533 46.1802 78.84C46.8136 79.32 47.1302 80.2133 47.1302 81.52C47.1302 82.7933 46.8136 83.6933 46.1802 84.22C45.5536 84.74 44.7902 85 43.8902 85H42.2402V78.11H43.6802ZM43.1902 78.87V84.25H43.9602C44.6002 84.25 45.1202 84.0533 45.5202 83.66C45.9202 83.2667 46.1202 82.5533 46.1202 81.52C46.1202 80.7933 46.0169 80.2367 45.8102 79.85C45.6036 79.4567 45.3402 79.1967 45.0202 79.07C44.7002 78.9367 44.3236 78.87 43.8902 78.87H43.1902ZM50.4858 78.11C51.3391 78.11 51.9991 78.29 52.4658 78.65C52.9324 79.0033 53.1658 79.5333 53.1658 80.24C53.1658 80.9933 52.9224 81.5533 52.4358 81.92C51.9491 82.2867 51.3024 82.47 50.4958 82.47H49.6258V85H48.6758V78.11H50.4858ZM50.4558 81.72C51.0091 81.72 51.4291 81.6133 51.7158 81.4C52.0091 81.1867 52.1558 80.8033 52.1558 80.25C52.1558 79.7567 52.0091 79.4 51.7158 79.18C51.4291 78.96 51.0158 78.85 50.4758 78.85H49.6258V81.72H50.4558ZM56.5063 82.08H55.4363V85H54.4863V78.11H56.2963C57.1563 78.11 57.8063 78.2733 58.2463 78.6C58.693 78.9267 58.9163 79.4133 58.9163 80.06C58.9163 80.54 58.793 80.93 58.5463 81.23C58.2997 81.53 57.9263 81.7567 57.4263 81.91L59.2863 85H58.1563L56.5063 82.08ZM56.3963 81.35C56.8963 81.35 57.273 81.25 57.5263 81.05C57.7797 80.8433 57.9063 80.5133 57.9063 80.06C57.9063 79.6333 57.7763 79.3267 57.5163 79.14C57.263 78.9467 56.853 78.85 56.2863 78.85H55.4363V81.35H56.3963ZM64.271 78.11L64.161 78.87H61.491V81.12H63.811V81.88H61.491V84.24H64.351V85H60.541V78.11H64.271ZM67.4949 77.99C67.9549 77.99 68.3483 78.0567 68.6749 78.19C69.0016 78.3167 69.3183 78.5167 69.6249 78.79L69.1049 79.37C68.8449 79.1633 68.5883 79.0133 68.3349 78.92C68.0883 78.82 67.8216 78.77 67.5349 78.77C67.1749 78.77 66.8783 78.8533 66.6449 79.02C66.4116 79.1867 66.2949 79.43 66.2949 79.75C66.2949 79.95 66.3349 80.12 66.4149 80.26C66.4949 80.3933 66.6416 80.5167 66.8549 80.63C67.0749 80.7433 67.3916 80.8633 67.8049 80.99C68.2383 81.1233 68.5983 81.2667 68.8849 81.42C69.1716 81.5733 69.4016 81.7867 69.5749 82.06C69.7549 82.3267 69.8449 82.6667 69.8449 83.08C69.8449 83.48 69.7449 83.8333 69.5449 84.14C69.3516 84.4467 69.0683 84.6867 68.6949 84.86C68.3283 85.0333 67.8916 85.12 67.3849 85.12C66.4316 85.12 65.6516 84.8233 65.0449 84.23L65.5649 83.65C65.8449 83.8767 66.1283 84.05 66.4149 84.17C66.7016 84.2833 67.0216 84.34 67.3749 84.34C67.8016 84.34 68.1549 84.2367 68.4349 84.03C68.7149 83.8167 68.8549 83.51 68.8549 83.11C68.8549 82.8833 68.8116 82.6967 68.7249 82.55C68.6383 82.3967 68.4883 82.26 68.2749 82.14C68.0683 82.02 67.7649 81.9 67.3649 81.78C66.6583 81.5667 66.1416 81.31 65.8149 81.01C65.4883 80.71 65.3249 80.3033 65.3249 79.79C65.3249 79.4433 65.4149 79.1333 65.5949 78.86C65.7816 78.5867 66.0383 78.3733 66.3649 78.22C66.6983 78.0667 67.0749 77.99 67.4949 77.99ZM72.827 77.99C73.287 77.99 73.6803 78.0567 74.007 78.19C74.3336 78.3167 74.6503 78.5167 74.957 78.79L74.437 79.37C74.177 79.1633 73.9203 79.0133 73.667 78.92C73.4203 78.82 73.1536 78.77 72.867 78.77C72.507 78.77 72.2103 78.8533 71.977 79.02C71.7436 79.1867 71.627 79.43 71.627 79.75C71.627 79.95 71.667 80.12 71.747 80.26C71.827 80.3933 71.9736 80.5167 72.187 80.63C72.407 80.7433 72.7236 80.8633 73.137 80.99C73.5703 81.1233 73.9303 81.2667 74.217 81.42C74.5036 81.5733 74.7336 81.7867 74.907 82.06C75.087 82.3267 75.177 82.6667 75.177 83.08C75.177 83.48 75.077 83.8333 74.877 84.14C74.6836 84.4467 74.4003 84.6867 74.027 84.86C73.6603 85.0333 73.2236 85.12 72.717 85.12C71.7636 85.12 70.9836 84.8233 70.377 84.23L70.897 83.65C71.177 83.8767 71.4603 84.05 71.747 84.17C72.0336 84.2833 72.3536 84.34 72.707 84.34C73.1336 84.34 73.487 84.2367 73.767 84.03C74.047 83.8167 74.187 83.51 74.187 83.11C74.187 82.8833 74.1436 82.6967 74.057 82.55C73.9703 82.3967 73.8203 82.26 73.607 82.14C73.4003 82.02 73.097 81.9 72.697 81.78C71.9903 81.5667 71.4736 81.31 71.147 81.01C70.8203 80.71 70.657 80.3033 70.657 79.79C70.657 79.4433 70.747 79.1333 70.927 78.86C71.1136 78.5867 71.3703 78.3733 71.697 78.22C72.0303 78.0667 72.407 77.99 72.827 77.99Z" fill="#43267E"/>
<path d="M48 20C35.317 20 25 30.318 25 43C25 55.682 35.317 66 48 66C60.683 66 71 55.682 71 43C71 30.318 60.683 20 48 20ZM48 25C52.26 25 56.166 26.485 59.247 28.955C58.291 29.591 57.7 30.695 57.7 31.9C57.7 33.5 58.6 34.9 59.6 36.5C60.4 37.8 61.2 39.5 61.2 41.9C61.2 43.6 60.7 45.7 59.7 48.3L57.7 54.9L50.6 33.7C51.8 33.6 52.9 33.5 52.9 33.5C53.9 33.4 53.8 31.9 52.8 31.9C52.8 31.9 52.8 31.9 52.7 31.9C52.7 31.9 49.5 32.2 47.4 32.2C45.5 32.2 42.2 31.9 42.2 31.9C42.2 31.9 42.2 31.9 42.1 31.9C41.1 31.9 41 33.5 42 33.5C42 33.5 43 33.6 44.1 33.7L47.2 42.1L42.9 55L35.7 33.6C36.9 33.5 38 33.4 38 33.4C39 33.3 38.9 31.8 37.9 31.8C37.9 31.8 37.9 31.8 37.8 31.8C37.8 31.8 35.648 32.002 33.715 32.074C37.003 27.78 42.168 25 48 25ZM30 43C30 41.2 30.271 39.465 30.762 37.826L38.186 58.082C33.261 54.871 30 49.323 30 43ZM42.678 60.2L48 44.6L53.685 60.071C51.897 60.665 49.989 61 48 61C46.147 61 44.36 60.719 42.678 60.2ZM58.304 57.75L63.6 42.4C64.386 40.4 64.81 38.658 64.99 37.096C65.633 38.947 66 40.928 66 43C66 49.111 62.954 54.497 58.304 57.75Z" fill="url(#paint1_linear_131_40)"/>
<defs>
<linearGradient id="paint0_linear_131_40" x1="48" y1="0" x2="48" y2="96" gradientUnits="userSpaceOnUse">
<stop stop-color="#FE00B7" stop-opacity="0.3"/>
<stop offset="1" stop-color="#5200FF" stop-opacity="0.7"/>
</linearGradient>
<linearGradient id="paint1_linear_131_40" x1="25" y1="20" x2="65" y2="66" gradientUnits="userSpaceOnUse">
<stop stop-color="#D241AA"/>
<stop offset="1" stop-color="#9180FF"/>
</linearGradient>
</defs>
</svg>
